<?xml version="1.0" encoding="windows-1252"?>
<!-- Generator: Adobe Illustrator 15.0.0, SVG Export Plug-In . SVG Version: 6.00 Build 0)  -->
<!DOCTYPE svg PUBLIC "-//W3C//DTD SVG 1.1//EN" "http://www.w3.org/Graphics/SVG/1.1/DTD/svg11.dtd">
<svg version="1.1" id="&#12524;&#12452;&#12516;&#12540;_1" xmlns="http://www.w3.org/2000/svg" xmlns:xlink="http://www.w3.org/1999/xlink" x="0px" y="0px" width="141.732px" height="141.731px" viewBox="0 0 141.732 141.731" style="enable-background:new 0 0 141.732 141.731;" xml:space="preserve">
<path style="fill-rule:evenodd;clip-rule:evenodd;fill:#4F4F4F;" d="M10.235,70.866c0,31.412,25.413,56.878,56.765,56.878  c13.818,0,26.481-4.946,36.324-13.169c3.71-3.378-0.084-6.375-0.084-6.375l-12.216-9.195c-2.234-1.741-3.813-3.217-8.335-0.645  c-4.623,2.656-9.979,4.172-15.689,4.172c-17.456,0-31.603-14.176-31.603-31.666c0-17.491,14.147-31.667,31.603-31.667  c10.048,0,18.998,4.698,24.787,12.017l-13.224,5.627c-2.717,1.158-3.182,3.453-1.213,5.321l43.138,32.64  c2.33,1.386,4.392,0.297,4.743-2.647l6.222-52.345c0.379-3.185-1.694-4.752-4.631-3.502l-11.404,4.851  C105.434,24.862,87.484,13.988,67,13.988C35.647,13.988,10.235,39.453,10.235,70.866z"/>
</svg>